{"title":"Its.Alive.3.1987.DVDRip.Swesub.Xvid","uid":8563181,"size":732490122,"categoryP":"video","categoryS":"movies","magnet":"?xt=urn:btih:00df028fb228fc7d4c9ef7c0e9ec0d057be95e52&amp;dn=Its.Alive.3.1987.DVDRip.Swesub.Xvid&amp;tr=udp%3A%2F%2Ftracker.openbittorrent.com%3A80&amp;tr=udp%3A%2F%2Fopen.demonii.com%3A1337&amp;tr=udp%3A%2F%2Ftracker.coppersurfer.tk%3A6969&amp;tr=udp%3A%2F%2Fexodus.desync.com%3A6969","seeders":0,"leechers":1,"uploader":"nordjok","files":-1,"time":1370941486,"description":"                             Swedish Hardsub\n\n\n                               &lt;a href=&quot;\nhttp://www.imdb.com/title/tt0093286/&quot; rel=&quot;nofollow&quot; target=&quot;_NEW&quot;&gt;\nhttp://www.imdb.com/title/tt0093286/&lt;/a&gt;\n\nGeneral\nComplete name                       : Its.Alive.3.1987.DVDRip.Swesub.Xvid.avi\nFormat                              : AVI\nFormat/Info                         : Audio Video Interleave\nFile size                           : 699 MiB\nDuration                            : 1h 30mn\n\n\nVideo\nID                                  : 0\nFormat                              : MPEG-4 Visual\nFormat profile                      : Advanced Simple@L5\nFormat settings, BVOP               : 2\nFormat settings, QPel               : No\nFormat settings, GMC                : No warppoints\nFormat settings, Matrix             : Default (H.263)\nCodec ID                            : XVID\nCodec ID/Hint                       : XviD\nDuration                            : 1h 30mn\nBit rate                            : 930 Kbps\nWidth                               : 656 pixels\nHeight                              : 368 pixels\nDisplay aspect ratio                : 16:9\nFrame rate                          : 25.000 fps\nColor space                         : YUV\nChroma subsampling                  : 4:2:0\nBit depth                           : 8 bits\nScan type                           : Progressive\nCompression mode                    : Lossy\nBits/(Pixel*Frame)                  : 0.154\nStream size                         : 601 MiB (86%)\nWriting library                     : XviD 73\n\nAudio\nID                                  : 1\nFormat                              : MPEG Audio\nFormat version                      : Version 1\nFormat profile                      : Layer 3\nCodec ID                            : 55\nCodec ID/Hint                       : MP3\nDuration                            : 1h 30mn\nBit rate mode                       : Variable\nBit rate                            : 137 Kbps\nMinimum bit rate                    : 32.0 Kbps\nChannel(s)                          : 2 channels\nSampling rate                       : 48.0 KHz\nCompression mode                    : Lossy\nStream size                         : 88.9 MiB (13%)\nAlignment                           : Aligned on interleaves\nInterleave, duration                : 24 ms (0.60 video frame)\nInterleave, preload duration        : 134 ms\nWriting library                     : LAME3.99r\nEncoding settings                   : -m s -V 5 -q 0 -lowpass 17 --vbr-new -b 32\n\n","torrent":{"xt":"urn:btih:00df028fb228fc7d4c9ef7c0e9ec0d057be95e52","amp;dn":"Its.Alive.3.1987.DVDRip.Swesub.Xvid","amp;tr":["udp%3A%2F%2Ftracker.openbittorrent.com%3A80","udp%3A%2F%2Fopen.demonii.com%3A1337","udp%3A%2F%2Ftracker.coppersurfer.tk%3A6969","udp%3A%2F%2Fexodus.desync.com%3A6969"],"infoHash":"00df028fb228fc7d4c9ef7c0e9ec0d057be95e52","infoHashBuffer":{"type":"Buffer","data":[0,223,2,143,178,40,252,125,76,158,247,192,233,236,13,5,123,233,94,82]},"announce":[],"urlList":[]}}